<?xml version="1.0" encoding="UTF-8" standalone="no"?>
<svg
   xmlns:dc="http://purl.org/dc/elements/1.1/"
   xmlns:cc="http://creativecommons.org/ns#"
   xmlns:rdf="http://www.w3.org/1999/02/22-rdf-syntax-ns#"
   xmlns:svg="http://www.w3.org/2000/svg"
   xmlns="http://www.w3.org/2000/svg"
   xmlns:xlink="http://www.w3.org/1999/xlink"
   xmlns:sodipodi="http://sodipodi.sourceforge.net/DTD/sodipodi-0.dtd"
   xmlns:inkscape="http://www.inkscape.org/namespaces/inkscape"
   id="svg8"
   version="1.1"
   viewBox="0 0 210 297"
   height="297mm"
   width="210mm"
   sodipodi:docname="emer.svg"
   inkscape:version="0.92.4 (unknown)">
  <sodipodi:namedview
     pagecolor="#ffffff"
     bordercolor="#666666"
     borderopacity="1"
     objecttolerance="10"
     gridtolerance="10"
     guidetolerance="10"
     inkscape:pageopacity="0"
     inkscape:pageshadow="2"
     inkscape:window-width="1366"
     inkscape:window-height="739"
     id="namedview21"
     showgrid="false"
     inkscape:zoom="0.2973261"
     inkscape:cx="229.82048"
     inkscape:cy="515.99064"
     inkscape:window-x="0"
     inkscape:window-y="0"
     inkscape:window-maximized="1"
     inkscape:current-layer="svg8" />
  <defs
     id="defs2">
    <linearGradient
       id="linearGradient912">
      <stop
         id="stop908"
         offset="0"
         style="stop-color:#f40020;stop-opacity:1" />
      <stop
         id="stop910"
         offset="1"
         style="stop-color:#0899d7;stop-opacity:0" />
    </linearGradient>
    <linearGradient
       id="linearGradient1119">
      <stop
         style="stop-color:#f40020;stop-opacity:1"
         offset="0"
         id="stop1115" />
      <stop
         style="stop-color:#0899d7;stop-opacity:0.00819672"
         offset="1"
         id="stop1117" />
    </linearGradient>
    <linearGradient
       id="1010">
      <stop
         id="stop1021"
         offset="0"
         style="stop-color:#0067ea;stop-opacity:1" />
      <stop
         id="stop1023"
         offset="1"
         style="stop-color:#0899d7;stop-opacity:0.00819672" />
    </linearGradient>
    <linearGradient
       gradientTransform="translate(-2.3502559e-6)"
       y2="225.19038"
       x2="293.83673"
       y1="80.528107"
       x1="295.58011"
       gradientUnits="userSpaceOnUse"
       id="linearGradient1031"
       xlink:href="#1010" />
    <linearGradient
       gradientTransform="translate(-2.3502559e-6)"
       y2="264.5307"
       x2="295.51447"
       y1="191.12393"
       x1="299.81345"
       gradientUnits="userSpaceOnUse"
       id="linearGradient1031-0"
       xlink:href="#linearGradient912" />
    <linearGradient
       y2="225.19038"
       x2="293.83673"
       y1="80.528107"
       x1="295.58011"
       gradientUnits="userSpaceOnUse"
       id="linearGradient1031-3"
       xlink:href="#1010" />
    <linearGradient
       y2="295.67636"
       x2="301.74359"
       y1="191.12393"
       x1="299.81345"
       gradientUnits="userSpaceOnUse"
       id="linearGradient1031-0-5"
       xlink:href="#linearGradient1119" />
  </defs>
  <metadata
     id="metadata5">
    <rdf:RDF>
      <cc:Work
         rdf:about="">
        <dc:format>image/svg+xml</dc:format>
        <dc:type
           rdf:resource="http://purl.org/dc/dcmitype/StillImage" />
        <dc:title></dc:title>
      </cc:Work>
    </rdf:RDF>
  </metadata>
  <circle
     style="opacity:1;fill:#333333;fill-opacity:1;stroke:none;stroke-width:0.2333167;stroke-linecap:round;stroke-linejoin:miter;stroke-miterlimit:4;stroke-dasharray:none;stroke-dashoffset:0;stroke-opacity:1;paint-order:stroke fill markers"
     id="path830"
     cx="106.47578"
     cy="134.99121"
     r="34.395832" />
  <path
     inkscape:connector-curvature="0"
     id="path23-7"
     d="m 105.49082,236.47858 c -3.92172,-7.42167 -39.385022,-75.58791 -40.892842,-78.60268 -2.27575,-4.5502 -3.49932,-7.87283 -4.5469,-12.34723 -0.9488,-4.05246 -0.9488,-15.35033 0,-19.40279 3.91047,-16.70226 15.49264,-29.700612 31.14725,-34.955687 9.356042,-3.140721 20.514052,-3.140721 29.870092,0 15.6659,5.258866 27.23396,18.241377 31.14725,34.955687 0.52676,2.24986 0.66076,4.21737 0.66076,9.70139 0,10.57051 -0.93091,13.75722 -8.06341,27.60264 -14.06783,27.3081 -38.29047,73.45607 -38.61282,73.56352 -0.20451,0.0682 -0.52374,-0.16351 -0.70938,-0.51485 z m 38.90335,-89.159 c 1.37571,-4.75838 1.70472,-7.60984 1.50917,-13.07981 -0.23003,-6.43434 -1.25126,-10.45569 -4.12109,-16.22778 -17.45148,-33.395219 -59.212322,-26.240091 -71.297752,0 -2.84903,5.73025 -3.8855,9.79062 -4.12409,16.15604 -0.20068,5.35425 0.16465,8.48092 1.55083,13.27255 17.64646,36.24193 65.468292,34.90121 76.482932,-0.121 z"
     style="fill:#ff0000;fill-opacity:1;stroke-width:0.35277781" />
  <circle
     r="0"
     cy="134.46196"
     cx="107.36566"
     id="path848"
     style="opacity:1;fill:#800000;fill-opacity:1;stroke:none;stroke-width:0.27247375;stroke-linecap:round;stroke-linejoin:miter;stroke-miterlimit:4;stroke-dasharray:none;stroke-dashoffset:0;stroke-opacity:1;paint-order:stroke fill markers" />
  <path
     style="fill:#ffffff;stroke-width:0.21421519"
     d="m 121.18175,161.82382 c -3.81491,-0.41689 -5.16142,-0.62763 -7.33693,-1.14825 -14.09201,-3.37238 -25.563347,-13.11767 -30.964823,-26.30567 -1.884837,-4.60192 -2.871696,-9.0421 -3.167103,-14.2498 -0.133435,-2.35234 -0.10477,-2.70064 0.295202,-3.58627 0.299261,-0.66264 0.742346,-1.17509 1.365579,-1.57933 l 0.922568,-0.59842 5.313395,-0.0639 c 5.981393,-0.0718 6.623017,0.0389 7.793928,1.34508 0.717509,0.80043 0.758395,0.9752 1.107321,4.73405 0.133935,1.44277 0.440337,3.35081 0.680908,4.24009 0.819596,3.02973 0.846723,3.20649 0.619184,4.03413 -0.125648,0.45706 -1.25307,2.14546 -2.636671,3.94862 l -2.417149,3.15012 0.495051,0.86011 c 2.883434,5.00978 7.13492,9.17371 12.25112,11.99884 l 0.87991,0.48588 3.01616,-2.22109 c 3.56076,-2.62211 3.4048,-2.52432 4.3636,-2.73613 0.54355,-0.12007 1.31003,-0.0266 2.7342,0.33369 2.58549,0.65392 4.28211,0.92447 7.10729,1.1333 2.059,0.15221 2.40234,0.23671 3.11012,0.76547 1.52194,1.13701 1.64644,1.74766 1.56949,7.69733 -0.0652,5.03985 -0.0867,5.26916 -0.56568,6.02363 -0.82604,1.30118 -1.77748,1.73247 -3.9271,1.78015 -1.0186,0.0226 -2.1929,0.004 -2.60957,-0.0417 z m -7.34355,-26.93189 c -0.40105,-0.49937 -0.44861,-0.84778 -0.44861,-3.28607 v -2.72747 h -2.78465 c -2.4894,0 -2.84511,-0.0466 -3.35495,-0.43939 l -0.57031,-0.4394 v -3.14929 -3.14931 l 0.57031,-0.43938 c 0.50984,-0.39282 0.86555,-0.4394 3.35495,-0.4394 h 2.78465 v -2.72748 c 0,-2.43828 0.0476,-2.78668 0.44861,-3.28606 l 0.4486,-0.5586 h 3.21531 3.21532 l 0.44861,0.5586 c 0.40105,0.49938 0.44861,0.84778 0.44861,3.28606 v 2.72748 h 2.82367 c 2.70938,0 2.84519,0.0211 3.35496,0.52037 0.51513,0.50456 0.53129,0.61365 0.53129,3.58869 0,3.06224 -8.2e-4,3.06919 -0.57031,3.50772 -0.50986,0.3928 -0.86557,0.43939 -3.35497,0.43939 h -2.78464 v 2.72747 c 0,2.43829 -0.0476,2.7867 -0.44861,3.28607 l -0.44861,0.5586 h -3.21532 -3.21531 z"
     id="path842"
     inkscape:connector-curvature="0" />
</svg>
