<?xml version="1.0" encoding="UTF-8" standalone="no"?>
<svg
   xmlns:dc="http://purl.org/dc/elements/1.1/"
   xmlns:cc="http://creativecommons.org/ns#"
   xmlns:rdf="http://www.w3.org/1999/02/22-rdf-syntax-ns#"
   xmlns:svg="http://www.w3.org/2000/svg"
   xmlns="http://www.w3.org/2000/svg"
   xmlns:xlink="http://www.w3.org/1999/xlink"
   xmlns:sodipodi="http://sodipodi.sourceforge.net/DTD/sodipodi-0.dtd"
   xmlns:inkscape="http://www.inkscape.org/namespaces/inkscape"
   width="210mm"
   height="297mm"
   viewBox="0 0 210 297"
   version="1.1"
   id="svg54"
   inkscape:version="1.0 (9f2f71dc58, 2020-08-02)"
   sodipodi:docname="hos.svg">
  <defs
     id="defs48">
    <linearGradient
       inkscape:collect="always"
       id="linearGradient996">
      <stop
         style="stop-color:#aa0000;stop-opacity:1;"
         offset="0"
         id="stop992" />
      <stop
         style="stop-color:#aa0000;stop-opacity:0;"
         offset="1"
         id="stop994" />
    </linearGradient>
    <linearGradient
       gradientTransform="translate(-3.2984316,-19.505833)"
       y2="225.19038"
       x2="293.83673"
       y1="80.528107"
       x1="295.58011"
       gradientUnits="userSpaceOnUse"
       id="linearGradient1031"
       xlink:href="#1010" />
    <linearGradient
       id="1010">
      <stop
         id="stop1021"
         offset="0"
         style="stop-color:#0067ea;stop-opacity:1" />
      <stop
         id="stop1023"
         offset="1"
         style="stop-color:#0899d7;stop-opacity:0.00819672" />
    </linearGradient>
    <linearGradient
       gradientTransform="translate(-24.465099,17.00667)"
       y2="51.850361"
       x2="299.96384"
       y1="191.12393"
       x1="299.81345"
       gradientUnits="userSpaceOnUse"
       id="linearGradient1031-0"
       xlink:href="#linearGradient1119" />
    <linearGradient
       id="linearGradient1119">
      <stop
         style="stop-color:#f40020;stop-opacity:1"
         offset="0"
         id="stop1115" />
      <stop
         style="stop-color:#0899d7;stop-opacity:0.00819672"
         offset="1"
         id="stop1117" />
    </linearGradient>
    <linearGradient
       inkscape:collect="always"
       xlink:href="#linearGradient996"
       id="linearGradient998"
       x1="56.041049"
       y1="143.40413"
       x2="149.57801"
       y2="143.40413"
       gradientUnits="userSpaceOnUse" />
  </defs>
  <sodipodi:namedview
     id="base"
     pagecolor="#ffffff"
     bordercolor="#666666"
     borderopacity="1.0"
     inkscape:pageopacity="0.0"
     inkscape:pageshadow="2"
     inkscape:zoom="0.31523535"
     inkscape:cx="443.75001"
     inkscape:cy="485.37585"
     inkscape:document-units="mm"
     inkscape:current-layer="layer1"
     inkscape:document-rotation="0"
     showgrid="false"
     inkscape:window-width="1366"
     inkscape:window-height="732"
     inkscape:window-x="0"
     inkscape:window-y="0"
     inkscape:window-maximized="1" />
  <metadata
     id="metadata51">
    <rdf:RDF>
      <cc:Work
         rdf:about="">
        <dc:format>image/svg+xml</dc:format>
        <dc:type
           rdf:resource="http://purl.org/dc/dcmitype/StillImage" />
        <dc:title></dc:title>
      </cc:Work>
    </rdf:RDF>
  </metadata>
  <g
     inkscape:label="Capa 1"
     inkscape:groupmode="layer"
     id="layer1">
    <path
       style="fill:url(#linearGradient1031);fill-opacity:1;stroke-width:0.352778"
       d="m 102.19239,216.9727 c -3.921717,-7.42167 -39.385021,-75.58791 -40.892841,-78.60268 -2.27575,-4.5502 -3.49932,-7.87283 -4.5469,-12.34723 -0.9488,-4.05246 -0.9488,-15.35033 0,-19.40279 3.91047,-16.702254 15.49264,-29.700595 31.14725,-34.955672 9.356044,-3.14072 20.514051,-3.14072 29.870101,0 15.6659,5.258867 27.23396,18.241368 31.14725,34.955672 0.52676,2.24986 0.66076,4.21737 0.66076,9.70139 0,10.57051 -0.93091,13.75722 -8.06341,27.60264 -14.06783,27.3081 -38.29048,73.45607 -38.61283,73.56352 -0.20451,0.0682 -0.52374,-0.16351 -0.70938,-0.51485 z m 38.90336,-89.159 c 1.37571,-4.75838 1.70472,-7.60984 1.50917,-13.07981 -0.23003,-6.43434 -1.25126,-10.45569 -4.12109,-16.227777 -17.45148,-33.395187 -59.212331,-26.240075 -71.297761,0 -2.84903,5.730247 -3.8855,9.790617 -4.12409,16.156037 -0.20068,5.35425 0.16465,8.48092 1.55083,13.27255 17.64646,36.24193 65.468301,34.90121 76.482941,-0.121 z"
       id="path23-7" />
    <path
       style="fill:url(#linearGradient998);fill-opacity:1;stroke-width:0.352778"
       d="m 102.19239,216.9727 c -3.921717,-7.42167 -39.385021,-75.5879 -40.892841,-78.60268 -2.27575,-4.55019 -3.49932,-7.87283 -4.5469,-12.34722 -0.9488,-4.05247 -0.9488,-15.35035 0,-19.4028 3.91047,-16.702254 15.49264,-29.700595 31.14725,-34.955662 9.356044,-3.14072 20.514051,-3.14072 29.870101,0 15.6659,5.258857 27.23396,18.241358 31.14725,34.955662 0.52676,2.24986 0.66076,4.21737 0.66076,9.7014 0,10.5705 -0.93091,13.75721 -8.06341,27.60263 -14.06783,27.3081 -38.29048,73.45607 -38.61283,73.56352 -0.20451,0.0682 -0.52374,-0.16351 -0.70938,-0.51485 z m 38.90336,-89.159 c 1.37571,-4.75838 1.70472,-7.60983 1.50917,-13.07981 -0.23003,-6.43434 -1.25126,-10.45569 -4.12109,-16.227777 -17.45148,-33.395187 -59.212331,-26.240075 -71.297761,0 -2.84903,5.730247 -3.8855,9.790617 -4.12409,16.156037 -0.20068,5.35426 0.16465,8.48092 1.55083,13.27255 17.64646,36.24193 65.468301,34.90121 76.482941,-0.121 z"
       id="path23-7-6" />
    <path
       style="fill:#a30509;fill-opacity:0.98039216;stroke-width:0.094914"
       d="m 84.266332,133.91454 c -3.122617,-0.61093 -5.619092,-2.90428 -6.515866,-5.98573 l -0.219741,-0.75506 v -10.80693 -10.80691 l 0.219835,-0.75084 c 0.799357,-2.73014 2.83319,-4.830487 5.554742,-5.736417 l 0.906752,-0.30184 3.063419,-0.0337 3.063414,-0.0337 0.164396,-0.7565 c 0.602822,-2.77399 2.10377,-5.405347 4.14144,-7.260487 4.05911,-3.695487 9.855747,-4.298317 14.479157,-1.505777 3.09965,1.872187 5.34288,5.058757 6.14858,8.734174 l 0.16552,0.75507 3.09476,0.0547 c 1.70212,0.0301 3.20215,0.0872 3.33339,0.12681 1.62002,0.48931 1.88826,0.60532 2.86343,1.238507 1.60667,1.04322 2.85126,2.72789 3.45027,4.67028 0.21285,0.69019 0.21808,0.81132 0.24448,5.66041 0.0158,2.91037 -0.01,5.06139 -0.0624,5.21261 -0.0561,0.1615 -0.0556,0.27814 0.002,0.31293 0.0562,0.0344 0.08,2.19757 0.0625,5.6887 -0.0274,5.45802 -0.0346,5.65378 -0.23381,6.29392 -0.87175,2.80187 -2.83001,4.82222 -5.55985,5.73616 l -0.90915,0.30439 -18.51683,0.0139 c -10.290036,0.008 -18.704891,-0.0228 -18.939932,-0.0688 z m 1.28199,-6.1273 c 0.03243,-0.0519 0.01349,-0.0944 -0.04209,-0.0944 -0.05559,0 -0.101081,0.0425 -0.101081,0.0944 0,0.0519 0.01894,0.0944 0.04209,0.0944 0.02316,0 0.06864,-0.0425 0.101081,-0.0944 z m 20.782088,-0.19169 c 0.28884,-0.18919 0.50449,-0.42857 0.63677,-0.70685 0.18759,-0.39462 0.20002,-0.57888 0.20002,-2.96469 v -2.54392 l 2.64867,-0.0291 c 3.06863,-0.0337 3.18466,-0.0613 3.6986,-0.87966 l 0.28634,-0.45597 v -3.02768 c 0,-1.66522 -0.0328,-3.14362 -0.0729,-3.28533 -0.0401,-0.1417 -0.20235,-0.38857 -0.36054,-0.5486 -0.53112,-0.53727 -0.69,-0.56231 -3.56815,-0.56231 h -2.62374 l -0.028,-2.7292 -0.028,-2.7292 -0.28989,-0.40766 c -0.49447,-0.69534 -0.68211,-0.72978 -4.00525,-0.73513 -1.81088,-0.003 -3.002977,0.0337 -3.243067,0.0996 -0.48654,0.13357 -1.04916,0.68992 -1.18423,1.17103 -0.0645,0.22969 -0.10561,1.33551 -0.10593,2.84889 l -5.3e-4,2.47349 -2.7593,0.0277 -2.759292,0.0277 -0.366613,0.28986 c -0.710837,0.56203 -0.707485,0.54171 -0.678619,4.11395 l 0.02569,3.17682 0.296461,0.36256 c 0.598386,0.7318 0.619756,0.73639 3.587543,0.77031 l 2.64318,0.0302 0.0294,2.61253 c 0.0333,2.95999 0.0385,2.98253 0.82875,3.57857 l 0.40853,0.30813 h 3.173707 3.17371 l 0.43676,-0.28607 z m 12.00416,-26.23811 c 0,-0.0496 -0.0859,-0.0174 -0.1909,0.0715 -0.10499,0.0889 -0.1909,0.17492 -0.1909,0.19116 0,0.0162 0.0859,-0.0159 0.1909,-0.0715 0.10499,-0.0556 0.1909,-0.14159 0.1909,-0.19116 z m -6.10864,-2.800637 c 0,-0.36766 -0.50174,-1.74346 -0.95148,-2.60902 -1.38551,-2.666507 -3.57465,-4.471547 -6.33596,-5.224247 -0.43482,-0.11853 -0.97054,-0.16006 -2.06643,-0.16019 -1.3371,-1.9e-4 -1.56009,0.0244 -2.31764,0.25471 -2.657647,0.80816 -4.800997,2.63719 -6.104292,5.209107 -0.329472,0.65018 -0.747,1.78152 -0.879532,2.38319 l -0.06757,0.30675 h 9.361444 c 8.74369,0 9.36146,-0.0106 9.36146,-0.1603 z"
       id="path988"
       sodipodi:nodetypes="sscccsscccsssscscsssscscscsssssssscsscsscsssscccscssccccsscsscsscccccssssssssccsscss" />
  </g>
</svg>
